<svg xmlns="http://www.w3.org/2000/svg" xmlns:xlink="http://www.w3.org/1999/xlink" width="1024" height="1024" preserveAspectRatio="xMidYMid meet" version="1.1" viewBox="0 0 1024 1024" style="background:#fff"><defs><path id="b81cHJ00p" d="M512 895.4C501.64 895.33 491.48 892.62 482.47 887.5C473.09 881.95 398.02 837.57 388.64 832.02C374.72 824.12 381.49 821.3 386 819.8C404.81 813.22 408.57 811.71 428.51 800.43C430.77 799.39 433.4 799.61 435.47 800.99C442.66 805.26 500.28 839.41 507.49 843.68C510.24 845.18 513.57 845.18 516.32 843.68C544.42 827.47 769.19 697.78 797.28 681.58C799.89 679.97 801.46 677.11 801.41 674.05C801.41 641.61 801.41 382.09 801.41 349.66C801.45 346.49 799.8 343.55 797.09 341.94C769.02 325.73 544.4 196.04 516.32 179.83C513.64 178.33 510.36 178.33 507.68 179.83C479.6 196.04 254.98 325.73 226.91 341.94C224.18 343.56 222.47 346.47 222.4 349.66C222.4 382.09 222.4 641.61 222.4 674.05C222.37 677.16 224.12 680.01 226.91 681.39C234.6 685.84 296.13 721.5 303.83 725.95C345.57 746.83 371.15 722.2 371.15 697.56C371.15 665.54 371.15 409.32 371.15 377.3C371.15 372.83 374.77 369.21 379.23 369.21C379.23 369.21 379.23 369.21 379.23 369.21C382.81 369.21 411.39 369.21 414.96 369.21C419.43 369.21 423.05 372.83 423.05 377.3C423.05 377.3 423.05 377.3 423.05 377.3C423.05 409.32 423.05 665.54 423.05 697.56C423.05 753.22 392.77 785.2 339.93 785.2C323.57 785.2 310.79 785.2 275.24 767.71C267.87 763.46 208.89 729.45 201.53 725.2C183.28 714.62 172.04 695.14 172 674.05C172 641.61 172 382.09 172 349.66C172.04 328.56 183.28 309.08 201.53 298.5C229.62 282.27 454.38 152.44 482.47 136.21C500.85 126.06 523.15 126.06 541.53 136.21C569.62 152.44 794.38 282.27 822.47 298.5C840.72 309.08 851.96 328.56 852 349.66C852 382.09 852 641.61 852 674.05C851.96 695.14 840.72 714.62 822.47 725.2C794.38 741.43 569.62 871.27 541.53 887.5C532.52 892.62 522.36 895.33 512 895.39"/><path id="kjReQK7bm" d="M589.85 667.66C467.06 667.66 441.29 611.24 441.29 563.85C441.29 559.38 444.91 555.77 449.38 555.77C449.38 555.77 449.38 555.77 449.38 555.77C453 555.77 482.04 555.77 485.68 555.77C489.7 555.62 493.18 558.54 493.76 562.54C499.21 599.58 515.57 618.2 589.85 618.2C649.09 618.2 674.29 604.84 674.29 573.44C674.29 555.39 667.15 541.85 575.19 532.82C498.27 525.3 450.7 508.37 450.7 446.88C450.7 390.09 498.46 356.24 578.76 356.24C668.64 356.24 713.21 387.45 718.85 454.58C719.17 459.14 715.73 463.1 711.17 463.41C711.04 463.42 710.9 463.43 710.77 463.43C707.13 463.43 677.94 463.43 674.29 463.43C670.48 463.42 667.19 460.76 666.39 457.03C657.74 418.11 636.3 405.69 578.57 405.69C514.07 405.69 506.55 428.26 506.55 445.19C506.55 465.49 515.38 471.51 602.64 482.98C689.9 494.45 729.96 510.63 729.96 571.37C729.96 632.11 679 667.66 589.85 667.66"/></defs><g><g><g><use fill="#af1d1d" fill-opacity="1" opacity="1" xlink:href="#b81cHJ00p"/><g><use fill-opacity="0" stroke="#000" stroke-opacity="0" stroke-width="1" opacity="1" xlink:href="#b81cHJ00p"/></g></g><g><use fill="#af1d1d" fill-opacity="1" opacity="1" xlink:href="#kjReQK7bm"/><g><use fill-opacity="0" stroke="#000" stroke-opacity="0" stroke-width="1" opacity="1" xlink:href="#kjReQK7bm"/></g></g></g></g></svg>